<svg width="18" height="23" viewBox="0 0 18 23" fill="none" xmlns="http://www.w3.org/2000/svg">
<path d="M9 13.875C8.12663 13.875 7.38745 13.5725 6.78247 12.9675C6.17751 12.3626 5.87503 11.6234 5.87503 10.75V3.25C5.87503 2.37663 6.17751 1.63745 6.78247 1.03247C7.38745 0.42751 8.12663 0.125031 9 0.125031C9.87337 0.125031 10.6126 0.42751 11.2175 1.03247C11.8225 1.63745 12.125 2.37663 12.125 3.25V10.75C12.125 11.6234 11.8225 12.3626 11.2175 12.9675C10.6126 13.5725 9.87337 13.875 9 13.875ZM9 22.9375C8.73398 22.9375 8.51123 22.8477 8.33175 22.6683C8.15227 22.4888 8.06253 22.266 8.06253 22V18.8173C6.17311 18.5945 4.56734 17.8241 3.24522 16.506C1.92311 15.1879 1.15229 13.6009 0.93275 11.7452C0.894271 11.4791 0.967979 11.2468 1.15387 11.0481C1.33977 10.8494 1.58496 10.75 1.88944 10.75C2.10898 10.75 2.30529 10.8333 2.47838 11C2.65144 11.1667 2.76121 11.3702 2.80769 11.6106C3.01442 13.133 3.70272 14.4118 4.87259 15.4471C6.04247 16.4824 7.41827 17 9 17C10.5817 17 11.9575 16.4824 13.1274 15.4471C14.2973 14.4118 14.9856 13.133 15.1923 11.6106C15.2388 11.3702 15.3498 11.1667 15.5252 11C15.7007 10.8333 15.9022 10.75 16.1298 10.75C16.4214 10.75 16.6602 10.8494 16.8461 11.0481C17.032 11.2468 17.1057 11.4791 17.0672 11.7452C16.8477 13.6009 16.0769 15.1879 14.7548 16.506C13.4327 17.8241 11.8269 18.5945 9.93747 18.8173V22C9.93747 22.266 9.84773 22.4888 9.66825 22.6683C9.48877 22.8477 9.26602 22.9375 9 22.9375ZM9 12C9.35417 12 9.65104 11.8802 9.89062 11.6406C10.1302 11.401 10.25 11.1042 10.25 10.75V3.25C10.25 2.89583 10.1302 2.59896 9.89062 2.35938C9.65104 2.11979 9.35417 2 9 2C8.64583 2 8.34896 2.11979 8.10938 2.35938C7.86979 2.59896 7.75 2.89583 7.75 3.25V10.75C7.75 11.1042 7.86979 11.401 8.10938 11.6406C8.34896 11.8802 8.64583 12 9 12Z" fill="white"/>
</svg>
