<svg width="30" height="30" viewBox="0 0 30 30" fill="none" xmlns="http://www.w3.org/2000/svg">
<rect width="30" height="30" rx="15" fill="#E1E4E8"/>
<mask id="mask0_3460_89908" style="mask-type:alpha" maskUnits="userSpaceOnUse" x="0" y="0" width="30" height="30">
<rect width="30" height="30" fill="#D9D9D9"/>
</mask>
<g mask="url(#mask0_3460_89908)">
<path d="M20.966 20.9662C20.7745 21.1577 20.5538 21.2535 20.304 21.2535C20.053 21.2535 19.8317 21.1577 19.6402 20.9662L14.9998 16.3258L10.3594 20.9662C10.1679 21.1577 9.94694 21.2532 9.69651 21.2526C9.44607 21.2532 9.2251 21.1577 9.0336 20.9662C8.84209 20.7747 8.74633 20.5534 8.74633 20.3024C8.74633 20.0526 8.84209 19.8319 9.0336 19.6404L13.674 15L9.0336 10.3596C8.84209 10.1681 8.74663 9.94713 8.74722 9.6967C8.74663 9.44627 8.84209 9.22529 9.0336 9.03379C9.2251 8.84228 9.44637 8.74652 9.69739 8.74652C9.94724 8.74652 10.1679 8.84228 10.3594 9.03379L14.9998 13.6742L19.6402 9.03379C19.8317 8.84228 20.0527 8.74623 20.3031 8.74564C20.5535 8.74623 20.7745 8.84228 20.966 9.03379C21.1575 9.22529 21.2533 9.44597 21.2533 9.69581C21.2533 9.94684 21.1575 10.1681 20.966 10.3596L16.3256 15L20.966 19.6404C21.1575 19.8319 21.2536 20.0529 21.2542 20.3033C21.2536 20.5537 21.1575 20.7747 20.966 20.9662Z" fill="#586069"/>
</g>
</svg>
