<svg width="30" height="30" viewBox="0 0 30 30" fill="none" xmlns="http://www.w3.org/2000/svg">
<g id="Outlined">
<rect width="30" height="30" rx="15" fill="#E1E4E8"/>
<mask id="mask0_3460_89905" style="mask-type:alpha" maskUnits="userSpaceOnUse" x="0" y="0" width="30" height="30">
<rect id="Bounding box" width="30" height="30" fill="#D9D9D9"/>
</mask>
<g mask="url(#mask0_3460_89905)">
<path id="add" d="M20.9662 20.9662C20.7747 21.1577 20.554 21.2535 20.3042 21.2535C20.0532 21.2535 19.8319 21.1577 19.6404 20.9662L15 16.3258L10.3596 20.9662C10.1681 21.1577 9.94712 21.2532 9.69669 21.2526C9.44626 21.2532 9.22529 21.1577 9.03378 20.9662C8.84227 20.7747 8.74652 20.5534 8.74652 20.3024C8.74652 20.0526 8.84227 19.8319 9.03378 19.6404L13.6742 15L9.03378 10.3596C8.84227 10.1681 8.74681 9.94713 8.7474 9.6967C8.74681 9.44627 8.84227 9.22529 9.03378 9.03379C9.22529 8.84228 9.44655 8.74652 9.69758 8.74652C9.94742 8.74652 10.1681 8.84228 10.3596 9.03379L15 13.6742L19.6404 9.03379C19.8319 8.84228 20.0529 8.74623 20.3033 8.74564C20.5537 8.74623 20.7747 8.84228 20.9662 9.03379C21.1577 9.22529 21.2535 9.44597 21.2535 9.69581C21.2535 9.94684 21.1577 10.1681 20.9662 10.3596L16.3258 15L20.9662 19.6404C21.1577 19.8319 21.2538 20.0529 21.2544 20.3033C21.2538 20.5537 21.1577 20.7747 20.9662 20.9662Z" fill="#586069"/>
</g>
</g>
</svg>
