<svg width="18" height="18" viewBox="0 0 18 18" fill="none" xmlns="http://www.w3.org/2000/svg">
<path d="M12.4375 17.125C11.9167 17.125 11.4742 16.9425 11.11 16.5775C10.745 16.2133 10.5625 15.7708 10.5625 15.25V2.75C10.5625 2.22917 10.745 1.78667 11.11 1.4225C11.4742 1.0575 11.9167 0.875 12.4375 0.875H15.25C15.7708 0.875 16.2133 1.0575 16.5775 1.4225C16.9425 1.78667 17.125 2.22917 17.125 2.75V15.25C17.125 15.7708 16.9425 16.2133 16.5775 16.5775C16.2133 16.9425 15.7708 17.125 15.25 17.125H12.4375ZM2.75 17.125C2.22917 17.125 1.78667 16.9425 1.4225 16.5775C1.0575 16.2133 0.875 15.7708 0.875 15.25V2.75C0.875 2.22917 1.0575 1.78667 1.4225 1.4225C1.78667 1.0575 2.22917 0.875 2.75 0.875H5.5625C6.08333 0.875 6.52583 1.0575 6.89 1.4225C7.255 1.78667 7.4375 2.22917 7.4375 2.75V15.25C7.4375 15.7708 7.255 16.2133 6.89 16.5775C6.52583 16.9425 6.08333 17.125 5.5625 17.125H2.75ZM12.4375 15.25H15.25V2.75H12.4375V15.25ZM2.75 15.25H5.5625V2.75H2.75V15.25Z" fill="white"/>
</svg>
