<svg width="350" height="48" viewBox="0 0 350 48" fill="none" xmlns="http://www.w3.org/2000/svg">
<path d="M129.294 21.1C128.934 20.4067 128.434 19.8867 127.794 19.54C127.154 19.18 126.414 19 125.574 19C124.654 19 123.834 19.2067 123.114 19.62C122.394 20.0333 121.828 20.62 121.414 21.38C121.014 22.14 120.814 23.02 120.814 24.02C120.814 25.02 121.014 25.9067 121.414 26.68C121.828 27.44 122.394 28.0267 123.114 28.44C123.834 28.8533 124.654 29.06 125.574 29.06C126.814 29.06 127.821 28.7133 128.594 28.02C129.368 27.3267 129.841 26.3867 130.014 25.2H124.794V23.38H132.454V25.16C132.308 26.24 131.921 27.2333 131.294 28.14C130.681 29.0467 129.874 29.7733 128.874 30.32C127.888 30.8533 126.788 31.12 125.574 31.12C124.268 31.12 123.074 30.82 121.994 30.22C120.914 29.6067 120.054 28.76 119.414 27.68C118.788 26.6 118.474 25.38 118.474 24.02C118.474 22.66 118.788 21.44 119.414 20.36C120.054 19.28 120.914 18.44 121.994 17.84C123.088 17.2267 124.281 16.92 125.574 16.92C127.054 16.92 128.368 17.2867 129.514 18.02C130.674 18.74 131.514 19.7667 132.034 21.1H129.294ZM144.803 25.22C144.803 25.6333 144.776 26.0067 144.723 26.34H136.303C136.37 27.22 136.696 27.9267 137.283 28.46C137.87 28.9933 138.59 29.26 139.443 29.26C140.67 29.26 141.536 28.7467 142.043 27.72H144.503C144.17 28.7333 143.563 29.5667 142.683 30.22C141.816 30.86 140.736 31.18 139.443 31.18C138.39 31.18 137.443 30.9467 136.603 30.48C135.776 30 135.123 29.3333 134.643 28.48C134.176 27.6133 133.943 26.6133 133.943 25.48C133.943 24.3467 134.17 23.3533 134.623 22.5C135.09 21.6333 135.736 20.9667 136.563 20.5C137.403 20.0333 138.363 19.8 139.443 19.8C140.483 19.8 141.41 20.0267 142.223 20.48C143.036 20.9333 143.67 21.5733 144.123 22.4C144.576 23.2133 144.803 24.1533 144.803 25.22ZM142.423 24.5C142.41 23.66 142.11 22.9867 141.523 22.48C140.936 21.9733 140.21 21.72 139.343 21.72C138.556 21.72 137.883 21.9733 137.323 22.48C136.763 22.9733 136.43 23.6467 136.323 24.5H142.423ZM149.707 21.84V27.94C149.707 28.3533 149.8 28.6533 149.987 28.84C150.187 29.0133 150.52 29.1 150.987 29.1H152.387V31H150.587C149.56 31 148.774 30.76 148.227 30.28C147.68 29.8 147.407 29.02 147.407 27.94V21.84H146.107V19.98H147.407V17.24H149.707V19.98H152.387V21.84H149.707ZM164.264 31.14C163.33 31.14 162.49 30.98 161.744 30.66C160.997 30.3267 160.41 29.86 159.984 29.26C159.557 28.66 159.344 27.96 159.344 27.16H161.784C161.837 27.76 162.07 28.2533 162.484 28.64C162.91 29.0267 163.504 29.22 164.264 29.22C165.05 29.22 165.664 29.0333 166.104 28.66C166.544 28.2733 166.764 27.78 166.764 27.18C166.764 26.7133 166.624 26.3333 166.344 26.04C166.077 25.7467 165.737 25.52 165.324 25.36C164.924 25.2 164.364 25.0267 163.644 24.84C162.737 24.6 161.997 24.36 161.424 24.12C160.864 23.8667 160.384 23.48 159.984 22.96C159.584 22.44 159.384 21.7467 159.384 20.88C159.384 20.08 159.584 19.38 159.984 18.78C160.384 18.18 160.944 17.72 161.664 17.4C162.384 17.08 163.217 16.92 164.164 16.92C165.51 16.92 166.61 17.26 167.464 17.94C168.33 18.6067 168.81 19.5267 168.904 20.7H166.384C166.344 20.1933 166.104 19.76 165.664 19.4C165.224 19.04 164.644 18.86 163.924 18.86C163.27 18.86 162.737 19.0267 162.324 19.36C161.91 19.6933 161.704 20.1733 161.704 20.8C161.704 21.2267 161.83 21.58 162.084 21.86C162.35 22.1267 162.684 22.34 163.084 22.5C163.484 22.66 164.03 22.8333 164.724 23.02C165.644 23.2733 166.39 23.5267 166.964 23.78C167.55 24.0333 168.044 24.4267 168.444 24.96C168.857 25.48 169.064 26.18 169.064 27.06C169.064 27.7667 168.87 28.4333 168.484 29.06C168.11 29.6867 167.557 30.1933 166.824 30.58C166.104 30.9533 165.25 31.14 164.264 31.14ZM174.414 21.84V27.94C174.414 28.3533 174.507 28.6533 174.694 28.84C174.894 29.0133 175.227 29.1 175.694 29.1H177.094V31H175.294C174.267 31 173.481 30.76 172.934 30.28C172.387 29.8 172.114 29.02 172.114 27.94V21.84H170.814V19.98H172.114V17.24H174.414V19.98H177.094V21.84H174.414ZM178.435 25.44C178.435 24.3333 178.662 23.3533 179.115 22.5C179.582 21.6467 180.209 20.9867 180.995 20.52C181.795 20.04 182.675 19.8 183.635 19.8C184.502 19.8 185.255 19.9733 185.895 20.32C186.549 20.6533 187.069 21.0733 187.455 21.58V19.98H189.755V31H187.455V29.36C187.069 29.88 186.542 30.3133 185.875 30.66C185.209 31.0067 184.449 31.18 183.595 31.18C182.649 31.18 181.782 30.94 180.995 30.46C180.209 29.9667 179.582 29.2867 179.115 28.42C178.662 27.54 178.435 26.5467 178.435 25.44ZM187.455 25.48C187.455 24.72 187.295 24.06 186.975 23.5C186.669 22.94 186.262 22.5133 185.755 22.22C185.249 21.9267 184.702 21.78 184.115 21.78C183.529 21.78 182.982 21.9267 182.475 22.22C181.969 22.5 181.555 22.92 181.235 23.48C180.929 24.0267 180.775 24.68 180.775 25.44C180.775 26.2 180.929 26.8667 181.235 27.44C181.555 28.0133 181.969 28.4533 182.475 28.76C182.995 29.0533 183.542 29.2 184.115 29.2C184.702 29.2 185.249 29.0533 185.755 28.76C186.262 28.4667 186.669 28.04 186.975 27.48C187.295 26.9067 187.455 26.24 187.455 25.48ZM195.03 21.58C195.363 21.02 195.803 20.5867 196.35 20.28C196.91 19.96 197.57 19.8 198.33 19.8V22.16H197.75C196.857 22.16 196.177 22.3867 195.71 22.84C195.257 23.2933 195.03 24.08 195.03 25.2V31H192.75V19.98H195.03V21.58ZM203.086 21.84V27.94C203.086 28.3533 203.179 28.6533 203.366 28.84C203.566 29.0133 203.899 29.1 204.366 29.1H205.766V31H203.966C202.939 31 202.152 30.76 201.606 30.28C201.059 29.8 200.786 29.02 200.786 27.94V21.84H199.486V19.98H200.786V17.24H203.086V19.98H205.766V21.84H203.086ZM217.967 25.22C217.967 25.6333 217.941 26.0067 217.887 26.34H209.467C209.534 27.22 209.861 27.9267 210.447 28.46C211.034 28.9933 211.754 29.26 212.607 29.26C213.834 29.26 214.701 28.7467 215.207 27.72H217.667C217.334 28.7333 216.727 29.5667 215.847 30.22C214.981 30.86 213.901 31.18 212.607 31.18C211.554 31.18 210.607 30.9467 209.767 30.48C208.941 30 208.287 29.3333 207.807 28.48C207.341 27.6133 207.107 26.6133 207.107 25.48C207.107 24.3467 207.334 23.3533 207.787 22.5C208.254 21.6333 208.901 20.9667 209.727 20.5C210.567 20.0333 211.527 19.8 212.607 19.8C213.647 19.8 214.574 20.0267 215.387 20.48C216.201 20.9333 216.834 21.5733 217.287 22.4C217.741 23.2133 217.967 24.1533 217.967 25.22ZM215.587 24.5C215.574 23.66 215.274 22.9867 214.687 22.48C214.101 21.9733 213.374 21.72 212.507 21.72C211.721 21.72 211.047 21.9733 210.487 22.48C209.927 22.9733 209.594 23.6467 209.487 24.5H215.587ZM219.451 25.44C219.451 24.3333 219.678 23.3533 220.131 22.5C220.598 21.6467 221.224 20.9867 222.011 20.52C222.811 20.04 223.698 19.8 224.671 19.8C225.391 19.8 226.098 19.96 226.791 20.28C227.498 20.5867 228.058 21 228.471 21.52V16.2H230.771V31H228.471V29.34C228.098 29.8733 227.578 30.3133 226.911 30.66C226.258 31.0067 225.504 31.18 224.651 31.18C223.691 31.18 222.811 30.94 222.011 30.46C221.224 29.9667 220.598 29.2867 220.131 28.42C219.678 27.54 219.451 26.5467 219.451 25.44ZM228.471 25.48C228.471 24.72 228.311 24.06 227.991 23.5C227.684 22.94 227.278 22.5133 226.771 22.22C226.264 21.9267 225.718 21.78 225.131 21.78C224.544 21.78 223.998 21.9267 223.491 22.22C222.984 22.5 222.571 22.92 222.251 23.48C221.944 24.0267 221.791 24.68 221.791 25.44C221.791 26.2 221.944 26.8667 222.251 27.44C222.571 28.0133 222.984 28.4533 223.491 28.76C224.011 29.0533 224.558 29.2 225.131 29.2C225.718 29.2 226.264 29.0533 226.771 28.76C227.278 28.4667 227.684 28.04 227.991 27.48C228.311 26.9067 228.471 26.24 228.471 25.48Z" fill="#5A89F5"/>
<rect x="0.5" y="0.5" width="349" height="47" rx="23.5" stroke="#5A89F5"/>
</svg>
